<svg width="20" height="20" viewBox="0 0 20 20" fill="none" xmlns="http://www.w3.org/2000/svg">
<path d="M4.58337 0.833374C3.89302 0.833374 3.33337 1.39302 3.33337 2.08337V17.9167C3.33337 18.6071 3.89302 19.1667 4.58337 19.1667H15.4167C16.1071 19.1667 16.6667 18.6071 16.6667 17.9167V5.83337L11.6667 0.833374H4.58337Z" fill="#4E8DF5"/>
<path d="M4.58337 19.1667C3.89302 19.1667 3.33337 18.6071 3.33337 17.9167V17.7084C3.33337 18.3987 3.89302 18.9584 4.58337 18.9584H15.4167C16.1071 18.9584 16.6667 18.3987 16.6667 17.7084V17.9167C16.6667 18.6071 16.1071 19.1667 15.4167 19.1667H4.58337Z" fill="#417EE9"/>
<path d="M4.58337 0.833374C3.89302 0.833374 3.33337 1.39302 3.33337 2.08337V2.29171C3.33337 1.60135 3.89302 1.04171 4.58337 1.04171H11.875L11.6667 0.833374H4.58337Z" fill="#639AF6"/>
<path d="M16.6667 10.1041V5.83329L15.9376 5.10413H12.4212C12.1428 5.10413 12.0033 5.44073 12.2002 5.6376L16.6667 10.1041Z" fill="url(#paint0_linear)"/>
<path d="M11.6666 0.833374L16.6666 5.83337H12.9166C12.2263 5.83337 11.6666 5.27373 11.6666 4.58337V0.833374Z" fill="#A6C5FA"/>
<path d="M13.3333 10H6.66663V10.8333H13.3333V10Z" fill="white"/>
<path d="M13.3333 11.6667H6.66663V12.5H13.3333V11.6667Z" fill="white"/>
<path d="M6.66663 13.3333H13.3333V14.1667H6.66663V13.3333Z" fill="white"/>
<path d="M11.6666 15H6.66663V15.8333H11.6666V15Z" fill="white"/>
<defs>
<linearGradient id="paint0_linear" x1="14.1667" y1="10.1041" x2="14.1667" y2="4.99996" gradientUnits="userSpaceOnUse">
<stop stop-color="#4E8DF5"/>
<stop offset="1" stop-color="#3D6ACD"/>
</linearGradient>
</defs>
</svg>
