<svg width="25" height="25" viewBox="0 0 25 25" fill="none" xmlns="http://www.w3.org/2000/svg">
<g clip-path="url(#clip0)">
<path d="M24.4171 12.7339C24.4171 11.7096 24.334 10.9622 24.1541 10.1871H12.4583V14.81H19.3235C19.1851 15.9589 18.4377 17.689 16.7767 18.8516L16.7534 19.0064L20.4514 21.8712L20.7076 21.8968C23.0606 19.7237 24.4171 16.5263 24.4171 12.7339Z" fill="#4285F4"/>
<path d="M24.4171 12.7339C24.4171 11.7096 24.334 10.9622 24.1541 10.1871H12.4583V14.81H19.3235C19.1851 15.9589 18.4377 17.689 16.7767 18.8516L16.7534 19.0064L20.4514 21.8712L20.7076 21.8968C23.0606 19.7237 24.4171 16.5263 24.4171 12.7339Z" fill="#66C8FF"/>
<path d="M12.4583 24.9141C15.8217 24.9141 18.6452 23.8068 20.7077 21.8967L16.7767 18.8516C15.7248 19.5852 14.313 20.0973 12.4583 20.0973C9.16414 20.0973 6.36824 17.9243 5.37158 14.9208L5.22549 14.9332L1.38027 17.9091L1.32998 18.0488C3.37845 22.1181 7.58618 24.9141 12.4583 24.9141Z" fill="#34A853"/>
<path d="M12.4583 24.9141C15.8217 24.9141 18.6452 23.8068 20.7077 21.8967L16.7767 18.8516C15.7248 19.5852 14.313 20.0973 12.4583 20.0973C9.16414 20.0973 6.36824 17.9243 5.37158 14.9208L5.22549 14.9332L1.38027 17.9091L1.32998 18.0488C3.37845 22.1181 7.58618 24.9141 12.4583 24.9141Z" fill="#66C8FF"/>
<path d="M5.37158 14.9208C5.10861 14.1457 4.95641 13.3152 4.95641 12.4571C4.95641 11.5989 5.10861 10.7684 5.35775 9.99332L5.35078 9.82825L1.45737 6.80458L1.32998 6.86517C0.485705 8.55382 0.00125885 10.4501 0.00125885 12.4571C0.00125885 14.464 0.485705 16.3602 1.32998 18.0489L5.37158 14.9208Z" fill="#FBBC05"/>
<path d="M5.37158 14.9208C5.10861 14.1457 4.95641 13.3152 4.95641 12.4571C4.95641 11.5989 5.10861 10.7684 5.35775 9.99332L5.35078 9.82825L1.45737 6.80458L1.32998 6.86517C0.485705 8.55382 0.00125885 10.4501 0.00125885 12.4571C0.00125885 14.464 0.485705 16.3602 1.32998 18.0489L5.37158 14.9208Z" fill="#66C8FF"/>
<path d="M12.4583 4.8167C14.7974 4.8167 16.3753 5.8271 17.275 6.67147L20.7907 3.23884C18.6315 1.23187 15.8217 0 12.4583 0C7.58618 0 3.37845 2.7959 1.32998 6.86517L5.35775 9.99332C6.36824 6.98979 9.16414 4.8167 12.4583 4.8167Z" fill="#EB4335"/>
<path d="M12.4583 4.8167C14.7974 4.8167 16.3753 5.8271 17.275 6.67147L20.7907 3.23884C18.6315 1.23187 15.8217 0 12.4583 0C7.58618 0 3.37845 2.7959 1.32998 6.86517L5.35775 9.99332C6.36824 6.98979 9.16414 4.8167 12.4583 4.8167Z" fill="#66C8FF"/>
</g>
<defs>
<clipPath id="clip0">
<rect width="24.43" height="25" fill="white"/>
</clipPath>
</defs>
</svg>
