<svg width="24" height="24" viewBox="0 0 24 24" fill="none" xmlns="http://www.w3.org/2000/svg">
<path fill-rule="evenodd" clip-rule="evenodd" d="M21.5999 12C21.5999 14.5461 20.5885 16.9879 18.7881 18.7882C16.9878 20.5886 14.546 21.6 11.9999 21.6C9.45382 21.6 7.01203 20.5886 5.21168 18.7882C3.41133 16.9879 2.3999 14.5461 2.3999 12C2.3999 9.45392 3.41133 7.01212 5.21168 5.21177C7.01203 3.41142 9.45382 2.39999 11.9999 2.39999C14.546 2.39999 16.9878 3.41142 18.7881 5.21177C20.5885 7.01212 21.5999 9.45392 21.5999 12ZM11.9999 8.39999C11.7891 8.39979 11.5819 8.45514 11.3992 8.56047C11.2166 8.6658 11.0649 8.8174 10.9595 8.99999C10.8834 9.14144 10.7796 9.26617 10.6544 9.36679C10.5292 9.4674 10.385 9.54184 10.2305 9.58571C10.076 9.62958 9.91424 9.64198 9.75483 9.62218C9.59542 9.60237 9.44161 9.55076 9.30252 9.47041C9.16343 9.39005 9.04189 9.28259 8.9451 9.1544C8.84831 9.0262 8.77824 8.87987 8.73906 8.72409C8.69987 8.56831 8.69235 8.40625 8.71696 8.24752C8.74156 8.08878 8.79779 7.9366 8.8823 7.79999C9.27856 7.11373 9.89019 6.57739 10.6223 6.27415C11.3545 5.97091 12.1662 5.91772 12.9317 6.12282C13.6971 6.32793 14.3735 6.77987 14.8559 7.40855C15.3384 8.03724 15.5999 8.80754 15.5999 9.59999C15.6001 10.3447 15.3694 11.0712 14.9396 11.6794C14.5098 12.2876 13.902 12.7476 13.1999 12.996V13.2C13.1999 13.5183 13.0735 13.8235 12.8484 14.0485C12.6234 14.2736 12.3182 14.4 11.9999 14.4C11.6816 14.4 11.3764 14.2736 11.1514 14.0485C10.9263 13.8235 10.7999 13.5183 10.7999 13.2V12C10.7999 11.6817 10.9263 11.3765 11.1514 11.1515C11.3764 10.9264 11.6816 10.8 11.9999 10.8C12.3182 10.8 12.6234 10.6736 12.8484 10.4485C13.0735 10.2235 13.1999 9.91825 13.1999 9.59999C13.1999 9.28173 13.0735 8.97651 12.8484 8.75147C12.6234 8.52642 12.3182 8.39999 11.9999 8.39999ZM11.9999 18C12.3182 18 12.6234 17.8736 12.8484 17.6485C13.0735 17.4235 13.1999 17.1183 13.1999 16.8C13.1999 16.4817 13.0735 16.1765 12.8484 15.9515C12.6234 15.7264 12.3182 15.6 11.9999 15.6C11.6816 15.6 11.3764 15.7264 11.1514 15.9515C10.9263 16.1765 10.7999 16.4817 10.7999 16.8C10.7999 17.1183 10.9263 17.4235 11.1514 17.6485C11.3764 17.8736 11.6816 18 11.9999 18Z" fill="#8E99AB"/>
</svg>
